<svg width="26" height="27" viewBox="0 0 26 27" fill="none" xmlns="http://www.w3.org/2000/svg">
<path fill-rule="evenodd" clip-rule="evenodd" d="M18.9402 20.0629C19.0524 19.9787 19.1935 19.9425 19.3324 19.9624C19.4714 19.9822 19.5967 20.0564 19.6809 20.1687L21.1095 22.0734H21.9031C22.0435 22.0734 22.178 22.1292 22.2773 22.2284C22.3765 22.3276 22.4322 22.4622 22.4322 22.6025C22.4322 22.7429 22.3765 22.8774 22.2773 22.9767C22.178 23.0759 22.0435 23.1316 21.9031 23.1316H19.2576C19.1173 23.1316 18.9827 23.0759 18.8835 22.9767C18.7843 22.8774 18.7285 22.7429 18.7285 22.6025C18.7285 22.4622 18.7843 22.3276 18.8835 22.2284C18.9827 22.1292 19.1173 22.0734 19.2576 22.0734H19.7867L18.8343 20.8036C18.7501 20.6913 18.714 20.5502 18.7338 20.4113C18.7537 20.2724 18.8279 20.147 18.9402 20.0629Z" fill="black"/>
<path fill-rule="evenodd" clip-rule="evenodd" d="M17.6704 21.0153C18.493 21.0151 19.3016 20.8019 20.0173 20.3963C20.733 19.9907 21.3314 19.4066 21.7543 18.7009C22.1771 17.9952 22.4099 17.192 22.43 16.3696C22.4501 15.5472 22.2567 14.7337 21.8689 14.0082C21.481 13.2827 20.9118 12.6701 20.2168 12.23C19.5217 11.79 18.7245 11.5375 17.9028 11.4972C17.0812 11.4569 16.2631 11.6301 15.5283 12C14.7935 12.3699 14.1671 12.9238 13.71 13.6079H17.4466C18.1417 13.6074 18.8135 13.8594 19.3368 14.3169C19.8602 14.7745 20.1997 15.4065 20.2922 16.0955C20.3847 16.7845 20.2238 17.4837 19.8396 18.063C19.4554 18.6424 18.8739 19.0626 18.2032 19.2454L14.9217 20.1423C15.725 20.7117 16.6857 21.0168 17.6704 21.0153ZM14.0069 19.2957L17.9238 18.2243C18.3469 18.1087 18.7137 17.8435 18.9561 17.4779C19.1984 17.1123 19.2999 16.6712 19.2416 16.2364C19.1832 15.8017 18.9692 15.4029 18.639 15.1141C18.3089 14.8253 17.8852 14.6661 17.4466 14.6661H13.1793C12.9996 15.176 12.908 15.7127 12.9084 16.2534C12.9084 17.41 13.3211 18.4703 14.0069 19.2957Z" fill="black"/>
<path fill-rule="evenodd" clip-rule="evenodd" d="M16.3841 20.8397C15.8604 20.6925 15.3657 20.4567 14.9217 20.1424L18.2032 19.2455C18.8739 19.0627 19.4554 18.6425 19.8396 18.0631C20.2238 17.4838 20.3847 16.7846 20.2922 16.0956C20.1997 15.4066 19.8602 14.7746 19.3368 14.317C18.8135 13.8595 18.1417 13.6075 17.4466 13.608H13.71C13.977 13.2085 14.3029 12.8517 14.6767 12.5498C15.3121 12.0366 16.0689 11.6954 16.8742 11.5592C17.6796 11.4229 18.5064 11.4961 19.2753 11.7717C20.0442 12.0472 20.7293 12.516 21.2647 13.1328C21.8002 13.7496 22.1679 14.4937 22.3327 15.2937C22.4975 16.0937 22.4537 16.9227 22.2056 17.7009C21.9575 18.4791 21.5134 19.1803 20.9159 19.7373C20.3185 20.2943 19.5879 20.6883 18.7942 20.8813C18.0006 21.0744 17.1706 21.0601 16.3841 20.8397ZM21.3725 16.3635C21.3735 16.3276 21.3741 16.2909 21.3741 16.2535C21.3741 15.7577 21.2746 15.267 21.0814 14.8105C20.8883 14.3539 20.6055 13.9408 20.2497 13.5955C19.894 13.2503 19.4725 12.98 19.0104 12.8006C18.5482 12.6212 18.0548 12.5365 17.5593 12.5514C18.5614 12.5802 19.5145 12.9912 20.2234 13.7C20.9324 14.4089 21.3435 15.3614 21.3725 16.3635ZM14.0069 19.2958L17.9238 18.2249C18.3474 18.1097 18.7147 17.8446 18.9574 17.4788C19.2002 17.1131 19.3019 16.6716 19.2435 16.2366C19.1852 15.8015 18.9708 15.4024 18.6403 15.1135C18.3097 14.8247 17.8855 14.6657 17.4466 14.6662H13.1793C12.9996 15.1761 12.908 15.7128 12.9084 16.2535C12.9084 17.4101 13.3211 18.4704 14.0069 19.2958ZM14.0037 15.7244C13.979 15.8972 13.9665 16.0736 13.9661 16.2535C13.9661 16.918 14.1407 17.5397 14.446 18.0783L17.6444 17.2037C17.8204 17.1558 17.973 17.0456 18.0739 16.8937C18.1748 16.7417 18.2171 16.5583 18.1929 16.3775C18.1687 16.1967 18.0797 16.0308 17.9424 15.9107C17.8052 15.7906 17.629 15.7244 17.4466 15.7244H14.0037ZM7.40579 20.063C7.51805 20.1472 7.59227 20.2725 7.61212 20.4115C7.63196 20.5504 7.59581 20.6915 7.51161 20.8037L5.92431 22.9202C5.84011 23.0324 5.71477 23.1066 5.57585 23.1265C5.43694 23.1463 5.29583 23.1102 5.18357 23.026C5.07131 22.9418 4.99709 22.8164 4.97724 22.6775C4.9574 22.5386 4.99355 22.3975 5.07775 22.2852L6.66505 20.1688C6.74925 20.0566 6.87459 19.9824 7.01351 19.9625C7.15242 19.9427 7.29353 19.9788 7.40579 20.063Z" fill="black"/>
<path d="M3.91382 22.6023C3.91382 22.462 3.96956 22.3274 4.06879 22.2282C4.16801 22.129 4.30259 22.0732 4.44292 22.0732H7.08843C7.22875 22.0732 7.36333 22.129 7.46256 22.2282C7.56178 22.3274 7.61753 22.462 7.61753 22.6023C7.61753 22.7427 7.56178 22.8772 7.46256 22.9765C7.36333 23.0757 7.22875 23.1314 7.08843 23.1314H4.44292C4.30259 23.1314 4.16801 23.0757 4.06879 22.9765C3.96956 22.8772 3.91382 22.7427 3.91382 22.6023Z" fill="black"/>
<path fill-rule="evenodd" clip-rule="evenodd" d="M4.44292 22.0734C4.30259 22.0734 4.16801 22.1292 4.06879 22.2284C3.96956 22.3276 3.91382 22.4622 3.91382 22.6025C3.91382 22.7429 3.96956 22.8774 4.06879 22.9767C4.16801 23.0759 4.30259 23.1316 4.44292 23.1316H7.08843C7.22875 23.1316 7.36333 23.0759 7.46256 22.9767C7.56178 22.8774 7.61753 22.7429 7.61753 22.6025C7.61753 22.4622 7.56178 22.3276 7.46256 22.2284C7.36333 22.1292 7.22875 22.0734 7.08843 22.0734H4.44292ZM4.44292 17.8512C4.44292 17.0064 4.7785 16.1963 5.37584 15.5989C5.97318 15.0016 6.78335 14.666 7.62811 14.666H17.4482C17.8849 14.6657 18.3069 14.8233 18.6365 15.1097C18.9661 15.3961 19.181 15.792 19.2416 16.2245C19.3022 16.6569 19.2044 17.0966 18.9662 17.4626C18.728 17.8286 18.3655 18.0961 17.9456 18.2158L8.50272 20.9136C6.46832 21.4946 4.44292 19.9666 4.44292 17.8512ZM8.53393 18.3697C8.41745 18.5715 8.23767 18.7291 8.02246 18.8182C7.80725 18.9074 7.56864 18.923 7.34364 18.8627C7.11864 18.8024 6.91982 18.6696 6.77801 18.4848C6.63621 18.3 6.55934 18.0736 6.55933 17.8406C6.55934 17.6077 6.63621 17.3813 6.77801 17.1965C6.91982 17.0117 7.11864 16.8788 7.34364 16.8185C7.56864 16.7582 7.80725 16.7739 8.02246 16.863C8.23767 16.9521 8.41745 17.1098 8.53393 17.3115H10.263C10.4034 17.3115 10.5379 17.3673 10.6372 17.4665C10.7364 17.5657 10.7921 17.7003 10.7921 17.8406C10.7921 17.981 10.7364 18.1155 10.6372 18.2148C10.5379 18.314 10.4034 18.3697 10.263 18.3697H8.53393Z" fill="black"/>
<path fill-rule="evenodd" clip-rule="evenodd" d="M5.50083 17.8459V17.8512C5.50083 19.2639 6.85321 20.284 8.21195 19.8962L9.85004 19.4279H9.01671C8.71156 19.6969 8.33537 19.8723 7.93315 19.933C7.53093 19.9937 7.11974 19.9372 6.74879 19.7703C6.37784 19.6034 6.06285 19.3331 5.84152 18.9918C5.6202 18.6505 5.50191 18.2527 5.50083 17.8459ZM7.62253 15.7242H17.4479C17.6294 15.7239 17.8047 15.7893 17.9417 15.9083C18.0787 16.0272 18.168 16.1917 18.1931 16.3714C18.2183 16.551 18.1776 16.7337 18.0785 16.8857C17.9795 17.0377 17.8288 17.1487 17.6543 17.1983L11.3463 19.0004C11.5791 18.783 11.741 18.5005 11.8111 18.1898C11.8811 17.8791 11.8561 17.5545 11.7392 17.2582C11.6223 16.9619 11.419 16.7076 11.1557 16.5284C10.8924 16.3492 10.5813 16.2533 10.2627 16.2533H9.01671C8.63156 15.9136 8.13606 15.7256 7.62253 15.7242ZM8.53364 18.3697C8.41716 18.5715 8.23738 18.7291 8.02217 18.8182C7.80696 18.9074 7.56835 18.923 7.34335 18.8627C7.11835 18.8024 6.91953 18.6696 6.77772 18.4848C6.63591 18.3 6.55904 18.0736 6.55903 17.8406C6.55904 17.6077 6.63591 17.3813 6.77772 17.1965C6.91953 17.0117 7.11835 16.8788 7.34335 16.8185C7.56835 16.7582 7.80696 16.7739 8.02217 16.863C8.23738 16.9521 8.41716 17.1098 8.53364 17.3115H10.2627C10.4031 17.3115 10.5377 17.3673 10.6369 17.4665C10.7361 17.5657 10.7918 17.7003 10.7918 17.8406C10.7918 17.981 10.7361 18.1155 10.6369 18.2148C10.5377 18.314 10.4031 18.3697 10.2627 18.3697H8.53364ZM7.62782 14.666C6.78305 14.666 5.97289 15.0016 5.37555 15.5989C4.77821 16.1963 4.44263 17.0064 4.44263 17.8512C4.44263 19.9671 6.46803 21.4946 8.50242 20.9136L17.9448 18.2152C18.3642 18.0952 18.7262 17.8277 18.964 17.4619C19.2018 17.0961 19.2994 16.6568 19.2389 16.2247C19.1785 15.7926 18.9639 15.397 18.6348 15.1105C18.3057 14.8241 17.8842 14.6663 17.4479 14.666H7.62782Z" fill="black"/>
<path fill-rule="evenodd" clip-rule="evenodd" d="M5.87254 10.4576C6.00641 10.4158 6.15137 10.4289 6.27558 10.494C6.39979 10.5591 6.49309 10.6708 6.53497 10.8047L7.85773 15.0375C7.89434 15.1698 7.87807 15.3112 7.81235 15.4318C7.74663 15.5523 7.63661 15.6426 7.50554 15.6836C7.37447 15.7245 7.23261 15.7129 7.10995 15.6512C6.98729 15.5895 6.89343 15.4825 6.8482 15.3528L5.52545 11.12C5.48371 10.9861 5.49682 10.8412 5.5619 10.717C5.62698 10.5927 5.73871 10.4995 5.87254 10.4576ZM18.9101 4.11576C18.9754 4.13961 19.0354 4.17609 19.0866 4.22312C19.1378 4.27014 19.1792 4.3268 19.2085 4.38984C19.2377 4.45288 19.2543 4.52108 19.2572 4.59053C19.2602 4.65998 19.2494 4.72932 19.2255 4.7946L18.6964 6.24328C18.6707 6.31369 18.6303 6.37784 18.578 6.43147C18.5256 6.4851 18.4624 6.527 18.3927 6.55439L16.4943 7.29778L18.1667 11.8375C18.1925 11.903 18.2049 11.973 18.2032 12.0434C18.2016 12.1138 18.1859 12.1832 18.1571 12.2474C18.1283 12.3117 18.0869 12.3695 18.0355 12.4176C17.984 12.4657 17.9235 12.503 17.8574 12.5274C17.7913 12.5517 17.7211 12.5627 17.6507 12.5595C17.5804 12.5564 17.5114 12.5392 17.4477 12.5091C17.3841 12.4789 17.3271 12.4364 17.2801 12.3839C17.2332 12.3315 17.1971 12.2702 17.1741 12.2036L15.3223 7.17714C15.2744 7.04725 15.2793 6.90375 15.336 6.77743C15.3926 6.65111 15.4966 6.55204 15.6255 6.50148L17.7842 5.65598L18.2318 4.43163C18.28 4.2999 18.3785 4.19268 18.5057 4.13354C18.6329 4.07441 18.7784 4.06768 18.9101 4.11576Z" fill="black"/>
<path d="M3.38452 9.98342C3.38443 9.77267 3.42852 9.56424 3.51395 9.37158C3.59937 9.17892 3.72423 9.0063 3.88047 8.86486C4.03672 8.72343 4.22087 8.61631 4.42106 8.55043C4.62125 8.48455 4.83302 8.46136 5.04273 8.48236L7.42474 8.72045C7.77933 8.75588 8.10673 8.92623 8.33923 9.19629C8.57173 9.46634 8.69154 9.81543 8.67387 10.1713C8.6562 10.5272 8.50241 10.8628 8.2443 11.1084C7.98619 11.3541 7.64352 11.4912 7.28717 11.4914H4.89246C4.49253 11.4914 4.10898 11.3325 3.82619 11.0497C3.54339 10.7669 3.38452 10.3834 3.38452 9.98342Z" fill="black"/>
<path fill-rule="evenodd" clip-rule="evenodd" d="M7.31997 9.77376L4.93743 9.53566C4.87687 9.52977 4.81576 9.53622 4.75777 9.55463C4.69979 9.57304 4.64614 9.60303 4.60008 9.64277C4.55402 9.68251 4.5165 9.73118 4.48979 9.78584C4.46308 9.8405 4.44774 9.90001 4.4447 9.96077C4.44165 10.0215 4.45096 10.0823 4.47207 10.1393C4.49318 10.1964 4.52565 10.2486 4.56751 10.2927C4.60936 10.3369 4.65974 10.3721 4.7156 10.3962C4.77145 10.4203 4.83162 10.4328 4.89245 10.433H7.28664C7.37078 10.432 7.45139 10.399 7.51204 10.3407C7.5727 10.2824 7.60883 10.2031 7.61308 10.1191C7.61733 10.035 7.58938 9.9525 7.53492 9.88835C7.48046 9.82419 7.40359 9.78321 7.31997 9.77376ZM5.04272 8.48275C4.83944 8.46253 4.63418 8.48382 4.43938 8.54533C4.24459 8.60683 4.06432 8.70728 3.90952 8.84057C3.75472 8.97386 3.62862 9.13721 3.53886 9.32071C3.4491 9.50421 3.39757 9.70404 3.38738 9.90806C3.37719 10.1121 3.40855 10.316 3.47958 10.5076C3.5506 10.6991 3.6598 10.8742 3.80055 11.0223C3.9413 11.1703 4.11066 11.2882 4.29836 11.3688C4.48606 11.4495 4.68818 11.4911 4.89245 11.4912H7.28664C7.64214 11.4899 7.98362 11.3524 8.24074 11.1068C8.49786 10.8613 8.65104 10.5266 8.66874 10.1715C8.68644 9.81642 8.5673 9.46808 8.33588 9.19821C8.10445 8.92834 7.77835 8.75749 7.42473 8.72084L5.04272 8.48275Z" fill="black"/>
</svg>
