<?xml version="1.0" encoding="utf-8"?>
<!-- Generator: Adobe Illustrator 28.0.0, SVG Export Plug-In . SVG Version: 6.00 Build 0)  -->
<svg version="1.1" id="Слой_1" xmlns="http://www.w3.org/2000/svg" xmlns:xlink="http://www.w3.org/1999/xlink" x="0px" y="0px"
	 viewBox="0 0 160 32" style="enable-background:new 0 0 160 32;" xml:space="preserve">
<style type="text/css">
	.st0{fill:#5A5A5A;}
</style>
<path class="st0" d="M21.46,8.45h-3.7c-0.14-0.79-0.41-1.49-0.8-2.09c-0.39-0.6-0.86-1.11-1.42-1.53c-0.56-0.42-1.19-0.73-1.89-0.95
	c-0.69-0.21-1.42-0.32-2.19-0.32c-1.4,0-2.65,0.35-3.76,1.06c-1.1,0.7-1.97,1.73-2.61,3.09c-0.63,1.36-0.95,3.02-0.95,4.98
	c0,1.98,0.32,3.64,0.95,5c0.64,1.36,1.51,2.39,2.62,3.08c1.11,0.7,2.35,1.04,3.73,1.04c0.77,0,1.49-0.1,2.18-0.31
	c0.7-0.21,1.32-0.53,1.89-0.94c0.56-0.41,1.03-0.91,1.42-1.51c0.4-0.6,0.67-1.29,0.82-2.06l3.7,0.01c-0.2,1.19-0.58,2.29-1.15,3.3
	c-0.56,1-1.28,1.86-2.17,2.58c-0.88,0.72-1.88,1.28-3.01,1.67c-1.13,0.4-2.36,0.59-3.7,0.59c-2.1,0-3.97-0.5-5.62-1.49
	c-1.64-1-2.94-2.44-3.89-4.3c-0.94-1.87-1.41-4.09-1.41-6.67c0-2.59,0.47-4.82,1.42-6.67c0.95-1.87,2.24-3.3,3.89-4.29
	c1.64-1,3.51-1.51,5.61-1.51c1.29,0,2.49,0.19,3.6,0.56c1.12,0.36,2.13,0.9,3.02,1.61c0.89,0.7,1.63,1.56,2.22,2.58
	C20.86,5.99,21.26,7.15,21.46,8.45z"/>
<path class="st0" d="M30.86,25.24c-1.15,0-2.2-0.21-3.13-0.64c-0.93-0.43-1.67-1.06-2.22-1.88c-0.54-0.82-0.81-1.83-0.81-3.02
	c0-1.03,0.2-1.87,0.59-2.54c0.4-0.66,0.93-1.19,1.6-1.58c0.67-0.39,1.42-0.68,2.25-0.88c0.83-0.2,1.68-0.35,2.54-0.45
	c1.09-0.13,1.98-0.23,2.65-0.31c0.68-0.09,1.17-0.23,1.48-0.41c0.31-0.19,0.46-0.5,0.46-0.92v-0.08c0-1.04-0.29-1.84-0.88-2.41
	c-0.58-0.57-1.44-0.85-2.58-0.85c-1.19,0-2.13,0.26-2.82,0.79c-0.68,0.52-1.15,1.1-1.41,1.74l-3.33-0.76c0.4-1.11,0.97-2,1.73-2.68
	c0.77-0.69,1.65-1.19,2.64-1.49c1-0.32,2.04-0.47,3.14-0.47c0.73,0,1.5,0.09,2.31,0.26c0.82,0.17,1.59,0.47,2.3,0.92
	c0.72,0.45,1.31,1.09,1.77,1.93c0.46,0.83,0.69,1.91,0.69,3.24v12.09h-3.46v-2.49h-0.14c-0.23,0.46-0.57,0.91-1.03,1.35
	c-0.46,0.44-1.05,0.81-1.77,1.1S31.86,25.24,30.86,25.24z M31.63,22.39c0.98,0,1.82-0.19,2.51-0.58c0.7-0.39,1.24-0.89,1.6-1.52
	c0.37-0.63,0.56-1.31,0.56-2.03v-2.35c-0.13,0.13-0.37,0.24-0.73,0.36c-0.36,0.1-0.76,0.19-1.22,0.27c-0.46,0.07-0.9,0.14-1.34,0.2
	c-0.43,0.06-0.8,0.1-1.09,0.14c-0.69,0.09-1.32,0.23-1.89,0.44c-0.56,0.21-1.01,0.5-1.35,0.89c-0.33,0.38-0.5,0.89-0.5,1.52
	c0,0.88,0.32,1.54,0.97,1.99C29.8,22.17,30.63,22.39,31.63,22.39z"/>
<path class="st0" d="M44.57,24.84V6.63h3.4v2.96h0.23c0.38-1,1-1.79,1.86-2.35c0.86-0.57,1.89-0.85,3.09-0.85
	c1.22,0,2.24,0.28,3.06,0.85c0.83,0.57,1.44,1.35,1.84,2.35h0.19c0.43-0.97,1.13-1.75,2.07-2.32c0.95-0.58,2.08-0.88,3.39-0.88
	c1.65,0,3,0.52,4.04,1.55c1.05,1.04,1.58,2.6,1.58,4.68v12.21h-3.54V12.96c0-1.23-0.34-2.13-1.01-2.68s-1.47-0.83-2.41-0.83
	c-1.15,0-2.05,0.36-2.69,1.07c-0.64,0.7-0.96,1.61-0.96,2.71v11.61h-3.53v-12.1c0-0.99-0.31-1.78-0.92-2.38
	c-0.62-0.6-1.42-0.9-2.41-0.9c-0.67,0-1.29,0.18-1.86,0.53c-0.56,0.35-1.02,0.83-1.36,1.46c-0.34,0.62-0.51,1.35-0.51,2.17v11.23
	H44.57z"/>
<path class="st0" d="M74.07,31.66V6.63h3.46v2.95h0.3c0.21-0.38,0.5-0.82,0.89-1.32c0.39-0.5,0.92-0.93,1.61-1.3
	c0.69-0.38,1.6-0.57,2.73-0.57c1.47,0,2.78,0.37,3.94,1.11c1.15,0.74,2.06,1.81,2.72,3.21c0.66,1.4,1,3.08,1,5.05
	c0,1.97-0.33,3.66-0.98,5.06c-0.66,1.4-1.56,2.48-2.7,3.24c-1.15,0.75-2.45,1.13-3.92,1.13c-1.11,0-2.01-0.19-2.71-0.56
	c-0.7-0.37-1.24-0.81-1.64-1.3c-0.4-0.5-0.7-0.94-0.91-1.33h-0.21v9.66H74.07z M77.54,15.73c0,1.28,0.19,2.4,0.56,3.37
	c0.37,0.96,0.91,1.72,1.61,2.26c0.7,0.54,1.57,0.81,2.58,0.81c1.06,0,1.94-0.28,2.66-0.84c0.71-0.57,1.25-1.34,1.61-2.31
	c0.37-0.97,0.56-2.07,0.56-3.28c0-1.2-0.18-2.28-0.54-3.24c-0.36-0.96-0.89-1.71-1.61-2.26c-0.71-0.55-1.6-0.83-2.67-0.83
	c-1.03,0-1.9,0.26-2.61,0.79c-0.7,0.53-1.24,1.27-1.6,2.22C77.72,13.36,77.54,14.47,77.54,15.73z"/>
<path class="st0" d="M92.42,3.71V0.56h18.79v3.15h-7.58v21.12h-3.65V3.71H92.42z"/>
<path class="st0" d="M113.19,24.84V6.63h3.43v2.89h0.19c0.33-0.98,0.92-1.75,1.75-2.31c0.85-0.57,1.8-0.85,2.87-0.85
	c0.22,0,0.48,0.01,0.78,0.02c0.31,0.02,0.55,0.04,0.72,0.06v3.39c-0.14-0.04-0.4-0.08-0.76-0.13c-0.36-0.06-0.73-0.08-1.09-0.08
	c-0.84,0-1.59,0.18-2.24,0.53c-0.65,0.35-1.16,0.83-1.54,1.46c-0.38,0.62-0.57,1.32-0.57,2.11v11.12H113.19z"/>
<path class="st0" d="M131.14,25.24c-1.15,0-2.2-0.21-3.13-0.64c-0.93-0.43-1.67-1.06-2.22-1.88c-0.54-0.82-0.81-1.83-0.81-3.02
	c0-1.03,0.2-1.87,0.59-2.54c0.4-0.66,0.93-1.19,1.6-1.58c0.67-0.39,1.42-0.68,2.25-0.88c0.83-0.2,1.68-0.35,2.54-0.45
	c1.09-0.13,1.98-0.23,2.66-0.31c0.68-0.09,1.17-0.23,1.48-0.41c0.31-0.19,0.46-0.5,0.46-0.92v-0.08c0-1.04-0.29-1.84-0.88-2.41
	c-0.58-0.57-1.44-0.85-2.58-0.85c-1.19,0-2.13,0.26-2.82,0.79c-0.68,0.52-1.15,1.1-1.41,1.74l-3.33-0.76c0.39-1.11,0.97-2,1.73-2.68
	c0.77-0.69,1.65-1.19,2.64-1.49c1-0.32,2.04-0.47,3.14-0.47c0.73,0,1.5,0.09,2.31,0.26c0.82,0.17,1.59,0.47,2.3,0.92
	c0.72,0.45,1.31,1.09,1.77,1.93c0.46,0.83,0.69,1.91,0.69,3.24v12.09h-3.46v-2.49h-0.14c-0.23,0.46-0.57,0.91-1.03,1.35
	c-0.46,0.44-1.05,0.81-1.77,1.1C133,25.09,132.14,25.24,131.14,25.24z M131.91,22.39c0.98,0,1.82-0.19,2.51-0.58
	c0.7-0.39,1.24-0.89,1.6-1.52c0.37-0.63,0.56-1.31,0.56-2.03v-2.35c-0.13,0.13-0.37,0.24-0.73,0.36c-0.36,0.1-0.76,0.19-1.22,0.27
	c-0.46,0.07-0.91,0.14-1.34,0.2c-0.43,0.06-0.8,0.1-1.09,0.14c-0.69,0.09-1.32,0.23-1.88,0.44c-0.56,0.21-1.01,0.5-1.35,0.89
	c-0.33,0.38-0.5,0.89-0.5,1.52c0,0.88,0.32,1.54,0.97,1.99C130.08,22.17,130.9,22.39,131.91,22.39z"/>
<path class="st0" d="M148.39,14.02v10.81h-3.54V6.63h3.4v2.96h0.23c0.42-0.96,1.07-1.74,1.97-2.32c0.9-0.58,2.04-0.88,3.4-0.88
	c1.24,0,2.33,0.26,3.26,0.78c0.93,0.51,1.65,1.28,2.17,2.3c0.51,1.02,0.77,2.28,0.77,3.78v11.58h-3.55V13.68
	c0-1.32-0.34-2.35-1.03-3.09c-0.69-0.75-1.63-1.13-2.83-1.13c-0.82,0-1.55,0.18-2.19,0.53c-0.63,0.36-1.13,0.88-1.51,1.56
	C148.57,12.24,148.39,13.06,148.39,14.02z"/>
</svg>
