<svg width="26" height="26" viewBox="0 0 26 26" fill="none" xmlns="http://www.w3.org/2000/svg">
<path d="M21.0108 5.24319L14.8097 2.48128C13.8996 2.07916 12.524 2.07916 11.6139 2.48128L5.41284 5.24319C3.8467 5.9416 3.61389 6.89398 3.61389 7.40192C3.61389 7.90986 3.8467 8.86224 5.41284 9.56065L11.6139 12.3226C12.0689 12.5236 12.6404 12.6294 13.2118 12.6294C13.7832 12.6294 14.3547 12.5236 14.8097 12.3226L21.0108 9.56065C22.5769 8.86224 22.8097 7.90986 22.8097 7.40192C22.8097 6.89398 22.5875 5.9416 21.0108 5.24319Z" fill="#292D32"/>
<path d="M13.2118 18.1002C12.8097 18.1002 12.4076 18.0156 12.0372 17.8569L4.9049 14.6822C3.81495 14.1955 2.96838 12.8939 2.96838 11.6981C2.96838 11.2642 3.31759 10.915 3.75145 10.915C4.18532 10.915 4.53452 11.2642 4.53452 11.6981C4.53452 12.2695 5.01072 13.0103 5.53982 13.2431L12.6721 16.4177C13.0107 16.5658 13.4023 16.5658 13.7409 16.4177L20.8732 13.2431C21.4023 13.0103 21.8785 12.2801 21.8785 11.6981C21.8785 11.2642 22.2277 10.915 22.6615 10.915C23.0954 10.915 23.4446 11.2642 23.4446 11.6981C23.4446 12.8833 22.5981 14.1955 21.5081 14.6822L14.3758 17.8569C14.016 18.0156 13.6139 18.1002 13.2118 18.1002Z" fill="#292D32"/>
<path d="M13.2118 23.3493C12.8097 23.3493 12.4076 23.2646 12.0372 23.1059L4.9049 19.9313C3.73029 19.4127 2.96838 18.2381 2.96838 16.9471C2.96838 16.5133 3.31759 16.1641 3.75145 16.1641C4.18532 16.1641 4.53452 16.5133 4.53452 16.9471C4.53452 17.6138 4.92606 18.217 5.53982 18.4921L12.6721 21.6667C13.0107 21.8149 13.4023 21.8149 13.7409 21.6667L20.8732 18.4921C21.4764 18.2276 21.8785 17.6138 21.8785 16.9471C21.8785 16.5133 22.2277 16.1641 22.6615 16.1641C23.0954 16.1641 23.4446 16.5133 23.4446 16.9471C23.4446 18.2381 22.6827 19.4022 21.5081 19.9313L14.3758 23.1059C14.016 23.2646 13.6139 23.3493 13.2118 23.3493Z" fill="#292D32"/>
</svg>
