<?xml version="1.0" encoding="utf-8"?>
<!-- Generator: Adobe Illustrator 28.0.0, SVG Export Plug-In . SVG Version: 6.00 Build 0)  -->
<svg version="1.1" id="Слой_1" xmlns="http://www.w3.org/2000/svg" xmlns:xlink="http://www.w3.org/1999/xlink" x="0px" y="0px"
	 viewBox="0 0 147 24" style="enable-background:new 0 0 147 24;" xml:space="preserve">
<style type="text/css">
	.st0{fill:#5A5A5A;}
</style>
<path class="st0" d="M1.03,0.48H4.7v20.03h6.04v3.34H1.03V0.48z"/>
<path class="st0" d="M12.5,0.48h3.68v23.37H12.5V0.48z"/>
<path class="st0" d="M17.96,0.48h3.7l2.41,18.13h0.06l2.41-18.13h3.37l-3.54,23.37H21.5L17.96,0.48z"/>
<path class="st0" d="M31.67,0.48h10.02v3.34h-6.34V10h5.04v3.34h-5.04v7.18h6.34v3.34H31.67V0.48z"/>
<path class="st0" d="M43.8,0.48h5.41c1.82,0,3.19,0.49,4.1,1.47c0.92,0.98,1.37,2.41,1.37,4.31v2.3c0,1.89-0.45,3.33-1.37,4.31
	c-0.91,0.98-2.28,1.47-4.1,1.47h-1.74v9.51H43.8V0.48z M49.21,11c0.6,0,1.04-0.17,1.33-0.5c0.32-0.33,0.47-0.9,0.47-1.7V6.02
	c0-0.8-0.15-1.37-0.47-1.7c-0.29-0.33-0.73-0.5-1.33-0.5h-1.74V11H49.21z"/>
<path class="st0" d="M56.68,0.48h10.01v3.34h-6.34V10h5.04v3.34h-5.04v7.18h6.34v3.34H56.68V0.48z"/>
<path class="st0" d="M68.8,0.48h5.61c1.83,0,3.2,0.49,4.11,1.47s1.37,2.41,1.37,4.31v11.82c0,1.89-0.46,3.33-1.37,4.31
	c-0.91,0.98-2.28,1.47-4.11,1.47H68.8V0.48z M74.35,20.51c0.6,0,1.05-0.18,1.36-0.53c0.34-0.36,0.51-0.93,0.51-1.74V6.09
	c0-0.8-0.17-1.38-0.51-1.74C75.4,4,74.95,3.82,74.35,3.82h-1.87v16.69H74.35z"/>
<path class="st0" d="M82.37,0.48h3.67v23.37h-3.67V0.48z"/>
<path class="st0" d="M91.63,0.48h4.97l3.81,23.37h-3.68l-0.66-4.64v0.07h-4.18l-0.66,4.57h-3.41L91.63,0.48z M95.63,16.11L94,4.56
	h-0.07l-1.6,11.55H95.63z"/>
<path class="st0" d="M102.19,0.48h4.6l3.58,13.99h0.06V0.48h3.27v23.37h-3.77l-4.4-17.06h-0.07v17.06h-3.27V0.48z"/>
<path class="st0" d="M121.74,24.18c-1.8,0-3.18-0.51-4.14-1.54c-0.96-1.02-1.43-2.47-1.43-4.34V6.02c0-1.87,0.47-3.32,1.43-4.34
	c0.96-1.02,2.34-1.54,4.14-1.54c1.8,0,3.18,0.51,4.14,1.54s1.44,2.47,1.44,4.34v12.28c0,1.87-0.48,3.32-1.44,4.34
	C124.92,23.67,123.54,24.18,121.74,24.18z M121.74,20.85c1.27,0,1.9-0.77,1.9-2.3V5.79c0-1.54-0.63-2.3-1.9-2.3s-1.9,0.77-1.9,2.3
	v12.75C119.84,20.08,120.47,20.85,121.74,20.85z"/>
<path class="st0" d="M128.93,0.48h3.54l1.64,17.96h0.06l1.74-17.96h4l1.74,17.96h0.07l1.63-17.96h3.17l-2.37,23.37h-4.57
	l-1.67-15.76h-0.07l-1.66,15.76h-4.88L128.93,0.48z"/>
</svg>
