<svg width="1440" height="301" viewBox="0 0 1440 301" fill="none" xmlns="http://www.w3.org/2000/svg">
<path opacity="0.12" d="M-1012.43 295.88V5.91187H-897.268C-877.385 5.91187 -859.435 9.50195 -843.417 16.6821C-827.4 23.8623 -814.835 34.2183 -805.721 47.7501C-796.332 61.282 -791.637 77.4373 -791.637 96.2162C-791.637 114.719 -796.194 130.874 -805.307 144.682C-814.144 158.214 -826.572 168.708 -842.589 176.165C-858.33 183.621 -876.556 187.349 -897.268 187.349H-946.977V295.88H-1012.43ZM-946.977 131.427H-898.925C-883.46 131.427 -872.828 127.975 -867.029 121.071C-860.953 113.89 -857.916 105.606 -857.916 96.2162C-857.916 87.3791 -860.953 79.5085 -867.029 72.6045C-872.828 65.4244 -883.46 61.8343 -898.925 61.8343H-946.977V131.427ZM-767.281 295.88V5.91187H-656.679C-636.796 5.91187 -619.26 9.36387 -604.071 16.2679C-588.882 23.1719 -577.007 33.1136 -568.446 46.0932C-559.885 58.7965 -555.605 73.9853 -555.605 91.6596C-555.605 110.991 -560.852 127.146 -571.346 140.126C-581.84 153.105 -596.338 162.357 -614.841 167.88L-535.721 295.88H-611.113L-680.291 177.821H-701.831V295.88H-767.281ZM-701.831 122.313H-657.922C-647.704 122.313 -640.11 120.794 -635.139 117.757C-629.892 114.443 -626.302 110.438 -624.368 105.744C-622.435 101.049 -621.469 96.3543 -621.469 91.6596C-621.469 86.9648 -622.435 82.4082 -624.368 77.9896C-626.302 73.2949 -629.892 69.4287 -635.139 66.3909C-640.11 63.3532 -647.704 61.8343 -657.922 61.8343H-701.831V122.313ZM-514.035 295.88V5.91187H-448.585V295.88H-514.035ZM-409.271 295.88V5.91187H-331.394L-260.559 183.621L-191.795 5.91187H-113.918V295.88H-179.368V121.485L-235.29 261.912H-287.899L-343.821 121.071V295.88H-409.271ZM-100.646 295.88L4.57083 5.91187H79.5483L185.179 295.88H116.001L95.7036 235.815H-11.9988L-32.7108 295.88H-100.646ZM6.2278 183.621H77.8913L41.4382 77.9896L6.2278 183.621ZM204.807 295.88V5.91187H270.257V239.129H388.73V295.88H204.807ZM508.206 295.88V5.91187H618.808C638.691 5.91187 656.227 9.36387 671.416 16.2679C686.605 23.1719 698.48 33.1136 707.041 46.0932C715.602 58.7965 719.882 73.9853 719.882 91.6596C719.882 110.991 714.635 127.146 704.141 140.126C693.647 153.105 679.149 162.357 660.646 167.88L739.766 295.88H664.374L595.196 177.821H573.656V295.88H508.206ZM573.656 122.313H617.565C627.783 122.313 635.377 120.794 640.348 117.757C645.595 114.443 649.185 110.438 651.119 105.744C653.052 101.049 654.018 96.3543 654.018 91.6596C654.018 86.9648 653.052 82.4082 651.119 77.9896C649.185 73.2949 645.595 69.4287 640.348 66.3909C635.377 63.3532 627.783 61.8343 617.565 61.8343H573.656V122.313ZM742.397 295.88L847.614 5.91187H922.591L1028.22 295.88H959.044L938.747 235.815H831.044L810.332 295.88H742.397ZM849.271 183.621H920.934L884.481 77.9896L849.271 183.621ZM1163.46 300.851C1133.35 300.851 1107.67 294.499 1086.41 281.796C1065.14 268.816 1048.85 251.142 1037.53 228.773C1026.48 206.404 1020.96 180.721 1020.96 151.724C1020.96 122.728 1026.34 96.9066 1037.11 74.2615C1048.16 51.3402 1064.31 33.3898 1085.58 20.4103C1106.84 7.43076 1132.8 0.941005 1163.46 0.941005C1199.36 0.941005 1228.91 10.0543 1252.1 28.2808C1275.3 46.2312 1289.52 71.776 1294.77 104.915H1223.11C1220.34 90.8311 1213.58 79.9228 1202.81 72.1903C1192.31 64.4578 1178.78 60.5916 1162.21 60.5916C1147.85 60.5916 1135.01 64.0436 1123.69 70.9476C1112.37 77.5754 1103.53 87.6552 1097.18 101.187C1090.83 114.443 1087.65 131.289 1087.65 151.724C1087.65 171.608 1090.69 188.316 1096.76 201.847C1103.11 215.103 1111.95 225.183 1123.27 232.087C1134.6 238.715 1147.58 242.029 1162.21 242.029C1178.78 242.029 1192.31 238.577 1202.81 231.673C1213.58 224.493 1220.34 214.413 1223.11 201.433H1294.77C1289.52 232.363 1275.3 256.665 1252.1 274.339C1228.91 292.014 1199.36 300.851 1163.46 300.851ZM1325.36 295.88V5.91187H1515.91V62.2485H1390.81V114.857H1496.44V171.194H1390.81V239.543H1515.91V295.88H1325.36Z" fill="white"/>
</svg>
