<svg width="27" height="14" viewBox="0 0 27 14" fill="none" xmlns="http://www.w3.org/2000/svg">
<path d="M25.8528 6.01934C26.1033 6.01934 26.3063 6.22238 26.3063 6.47285V7.37988C26.3063 7.63035 26.1033 7.8334 25.8528 7.8334H24.4922V11.008C24.4922 11.2585 24.2892 11.4615 24.0387 11.4615H22.6782V12.8221C22.6782 13.0725 22.4751 13.2756 22.2247 13.2756H20.4106C20.1601 13.2756 19.9571 13.0725 19.9571 12.8221V8.28691C19.9571 8.03644 19.754 7.8334 19.5036 7.8334H7.71216C7.46169 7.8334 7.25864 8.03644 7.25864 8.28691V12.8221C7.25864 13.0725 7.0556 13.2756 6.80513 13.2756H4.99106C4.7406 13.2756 4.53755 13.0725 4.53755 12.8221V11.4615H3.177C2.92653 11.4615 2.72349 11.2585 2.72349 11.008V7.8334H1.36294C1.11247 7.8334 0.909424 7.63035 0.909424 7.37988V6.47285C0.909424 6.22238 1.11247 6.01934 1.36294 6.01934H2.72349V2.84473C2.72349 2.59426 2.92653 2.39121 3.177 2.39121H4.53755V1.03066C4.53755 0.780194 4.74059 0.577148 4.99106 0.577148H6.80513C7.0556 0.577148 7.25864 0.780194 7.25864 1.03066V5.56582C7.25864 5.81629 7.46169 6.01934 7.71216 6.01934H19.5036C19.754 6.01934 19.9571 5.81629 19.9571 5.56582V1.03066C19.9571 0.780195 20.1601 0.577148 20.4106 0.577148H22.2247C22.4751 0.577148 22.6782 0.780194 22.6782 1.03066V2.39121H24.0387C24.2892 2.39121 24.4922 2.59426 24.4922 2.84473V6.01934H25.8528Z" fill="black"/>
</svg>
