<?xml version="1.0" encoding="UTF-8"?>
<svg id="_Слой_1" data-name="Слой 1" xmlns="http://www.w3.org/2000/svg" viewBox="0 0 895.1 173.83">
  <defs>
    <style>
      .cls-1 {
        fill: #5a5a5a;
        stroke-width: 0px;
      }
    </style>
  </defs>
  <path class="cls-1" d="m214.82,18.85l-42.74,153h-36.17l-28.72-108.94-30.03,108.94-35.95.22L0,18.85h32.88l26.96,118.81,31.13-118.81h34.2l29.37,118.15,27.18-118.15h33.1Z"/>
  <path class="cls-1" d="m288.78,173.83c-11.69,0-22.21-2.56-31.57-7.67-9.35-5.26-16.73-12.64-22.14-22.14-5.26-9.5-7.89-20.46-7.89-32.88s2.7-23.38,8.11-32.88c5.55-9.5,13.08-16.81,22.58-21.92,9.5-5.26,20.09-7.89,31.78-7.89s22.29,2.63,31.78,7.89c9.5,5.11,16.95,12.42,22.36,21.92,5.55,9.5,8.33,20.46,8.33,32.88s-2.85,23.38-8.55,32.88c-5.55,9.5-13.15,16.88-22.8,22.14-9.5,5.12-20.17,7.67-32,7.67Zm0-26.74c5.55,0,10.74-1.32,15.56-3.95,4.97-2.78,8.91-6.87,11.84-12.28,2.92-5.41,4.38-11.98,4.38-19.73,0-11.54-3.07-20.39-9.21-26.52-5.99-6.28-13.37-9.43-22.14-9.43s-16.15,3.14-22.14,9.43c-5.85,6.14-8.77,14.98-8.77,26.52s2.85,20.46,8.55,26.74c5.85,6.14,13.15,9.21,21.92,9.21Z"/>
  <path class="cls-1" d="m405.33,69.27c3.95-6.43,9.06-11.47,15.34-15.12,6.43-3.65,13.74-5.48,21.92-5.48v32.22h-8.11c-9.64,0-16.95,2.26-21.92,6.8-4.82,4.53-7.23,12.42-7.23,23.67v60.5h-30.69V50.42h30.69v18.85Z"/>
  <path class="cls-1" d="m535.16,171.85l-41.21-51.73v51.73h-30.69V9.64h30.69v92.28l40.77-51.51h39.89l-53.49,60.94,53.92,60.5h-39.89Z"/>
  <path class="cls-1" d="m606.83,35.95c-5.41,0-9.94-1.68-13.59-5.04-3.51-3.51-5.26-7.82-5.26-12.93s1.75-9.35,5.26-12.71c3.65-3.51,8.18-5.26,13.59-5.26s9.86,1.75,13.37,5.26c3.65,3.36,5.48,7.6,5.48,12.71s-1.83,9.43-5.48,12.93c-3.51,3.36-7.96,5.04-13.37,5.04Zm15.12,14.47v121.44h-30.69V50.42h30.69Z"/>
  <path class="cls-1" d="m644.39,110.7c0-12.28,2.41-23.16,7.23-32.66,4.97-9.5,11.69-16.81,20.16-21.92,8.48-5.11,17.91-7.67,28.28-7.67,7.89,0,15.42,1.75,22.58,5.26,7.16,3.36,12.86,7.89,17.1,13.59V9.64h31.12v162.21h-31.12v-17.97c-3.8,5.99-9.13,10.81-16,14.47-6.87,3.65-14.83,5.48-23.9,5.48-10.23,0-19.58-2.63-28.06-7.89-8.47-5.26-15.2-12.64-20.16-22.14-4.82-9.64-7.23-20.68-7.23-33.1Zm95.57.44c0-7.45-1.46-13.81-4.38-19.07-2.92-5.41-6.87-9.5-11.84-12.28-4.97-2.92-10.3-4.38-16-4.38s-10.96,1.39-15.78,4.17c-4.83,2.78-8.77,6.87-11.84,12.28-2.92,5.26-4.39,11.54-4.39,18.85s1.46,13.74,4.39,19.29c3.07,5.41,7.01,9.57,11.84,12.49,4.96,2.92,10.22,4.38,15.78,4.38s11.03-1.39,16-4.17c4.97-2.92,8.92-7.01,11.84-12.28,2.92-5.41,4.38-11.84,4.38-19.29Z"/>
  <path class="cls-1" d="m847.31,173.83c-9.94,0-18.85-1.75-26.74-5.26-7.89-3.65-14.18-8.55-18.85-14.69-4.53-6.14-7.01-12.93-7.45-20.39h30.91c.58,4.68,2.85,8.55,6.8,11.62,4.09,3.07,9.13,4.6,15.12,4.6s10.37-1.17,13.59-3.51c3.36-2.34,5.04-5.33,5.04-8.99,0-3.95-2.05-6.87-6.14-8.77-3.95-2.05-10.3-4.24-19.07-6.58-9.06-2.19-16.51-4.46-22.36-6.8-5.7-2.34-10.67-5.92-14.91-10.74-4.09-4.82-6.14-11.33-6.14-19.51,0-6.72,1.9-12.86,5.7-18.41,3.95-5.55,9.5-9.94,16.66-13.15,7.31-3.21,15.86-4.82,25.65-4.82,14.47,0,26.01,3.65,34.63,10.96,8.62,7.16,13.38,16.88,14.25,29.15h-29.37c-.44-4.82-2.48-8.62-6.14-11.4-3.51-2.92-8.25-4.38-14.25-4.38-5.55,0-9.86,1.02-12.93,3.07-2.92,2.05-4.39,4.9-4.39,8.55,0,4.09,2.05,7.23,6.14,9.43,4.09,2.05,10.45,4.16,19.07,6.36,8.77,2.19,16,4.46,21.7,6.8,5.7,2.34,10.59,5.99,14.69,10.96,4.24,4.82,6.43,11.25,6.57,19.29,0,7.01-1.97,13.3-5.92,18.85-3.8,5.55-9.36,9.94-16.66,13.15-7.16,3.07-15.56,4.6-25.21,4.6Z"/>
</svg>