<?xml version="1.0" encoding="utf-8"?>
<!-- Generator: Adobe Illustrator 28.0.0, SVG Export Plug-In . SVG Version: 6.00 Build 0)  -->
<svg version="1.1" id="Слой_1" xmlns="http://www.w3.org/2000/svg" xmlns:xlink="http://www.w3.org/1999/xlink" x="0px" y="0px"
	 viewBox="0 0 285 24" style="enable-background:new 0 0 285 24;" xml:space="preserve">
<style type="text/css">
	.st0{fill:#5A5A5A;}
</style>
<path class="st0" d="M34.64,14.45L29.57,0.58h-9.62l-5.09,13.87L9.8,0.58H0.18L9.8,22.49h10.15l4.81-10.95l4.81,10.95h10.15
	l9.62-21.91h-9.62L34.64,14.45z"/>
<path class="st0" d="M63.49,0.01c-8.25,0.02-15,2.4-14.96,10.69v1.6c-0.03,8.28,6.72,10.68,14.96,10.69
	c8.23-0.02,14.98-2.41,14.95-10.69v-1.6C78.44,2.42,71.74,0.01,63.49,0.01z M69.89,11.76c0.05,3.59-2.92,4.24-6.4,4.29
	c-3.51-0.05-6.47-0.7-6.42-4.29v-0.54C57.02,7.65,59.98,7,63.49,6.95c3.49,0.05,6.45,0.7,6.4,4.27V11.76z"/>
<path class="st0" d="M80.99,0.56v21.91h8.54v-5.35h7.63l4.12,5.35h9.1l-4.78-6.15c1.43-0.67,2.59-1.68,3.46-3
	c0.88-1.34,1.32-2.84,1.32-4.48c0.07-4.53-3.77-8.33-8.28-8.28H80.99z M99.95,6.97c1.04,0,1.87,0.83,1.87,1.87
	c0,0.51-0.18,0.95-0.55,1.32c-0.36,0.36-0.8,0.54-1.32,0.54H89.54V6.97H99.95z"/>
<path class="st0" d="M113.04,0.55v21.91h25.64v-6.94h-17.1V0.55H113.04z"/>
<path class="st0" d="M160.47,13.37c-0.78,2.15-3.23,2.67-6.16,2.67c-3.49-0.05-6.46-0.7-6.41-4.27v-0.54
	c-0.05-3.6,2.92-4.22,6.41-4.27c2.93,0,5.36,0.51,6.16,2.66h8.75c-0.54-7.38-7.03-9.6-14.91-9.62c-8.22,0.03-15,2.41-14.96,10.69
	v1.6c-0.03,8.3,6.75,10.68,14.96,10.69c7.89,0,14.38-2.22,14.91-9.62H160.47z"/>
<path class="st0" d="M184.78,6.92l3,6.47h-6.02L184.78,6.92z M167.94,22.49h9.62l1.73-3.75h10.97l1.73,3.75h9.62L189.85,0.58h-10.16
	L167.94,22.49z"/>
<path class="st0" d="M202.27,22.45h8.54V10.77l8.56,11.69h4.27l8.56-11.69v11.69h8.54V0.55h-10.68L221.5,11.5l-8.54-10.95h-10.69
	V22.45z"/>
<path class="st0" d="M254.26,10.72V6.98h10.43c0.51,0,0.95,0.18,1.3,0.55c0.37,0.36,0.55,0.8,0.55,1.32c0,0.51-0.18,0.95-0.55,1.32
	c-0.36,0.36-0.8,0.54-1.3,0.54H254.26z M245.72,0.58v21.91h8.54v-5.35h12.57c4.52,0.07,8.34-3.77,8.28-8.28
	c0.07-4.53-3.76-8.33-8.28-8.28H245.72z"/>
<path class="st0" d="M275.78,16.06v6.41h8.54v-6.41H275.78z"/>
</svg>
